<svg width="29" height="27" viewBox="0 0 29 27" fill="none" xmlns="http://www.w3.org/2000/svg">
<path d="M3.22222 27C2.33611 27 1.57728 26.7065 0.945722 26.1195C0.315241 25.5315 0 24.825 0 24H3.22222V27ZM0 21V18H3.22222V21H0ZM0 15V12H3.22222V15H0ZM0 9V6H3.22222V9H0ZM6.44444 27V24H9.66667V27H6.44444ZM9.66667 21C8.78056 21 8.02226 20.7065 7.39178 20.1195C6.76022 19.5315 6.44444 18.825 6.44444 18V3C6.44444 2.175 6.76022 1.4685 7.39178 0.8805C8.02226 0.2935 8.78056 0 9.66667 0H25.7778C26.6639 0 27.4227 0.2935 28.0543 0.8805C28.6848 1.4685 29 2.175 29 3V18C29 18.825 28.6848 19.5315 28.0543 20.1195C27.4227 20.7065 26.6639 21 25.7778 21H9.66667ZM9.66667 18H25.7778V3H9.66667V18ZM12.8889 27V24H16.1111V27H12.8889ZM19.3333 27V24H22.5556V27H19.3333Z" fill="black"/>
</svg>
