<svg width="35" height="33" viewBox="0 0 35 33" fill="none" xmlns="http://www.w3.org/2000/svg">
<g filter="url(#filter0_i_2545_1104)">
<path d="M28 19.9V9.7C28 8.765 27.1 8 26 8H14C12.9 8 12 8.765 12 9.7V19.9C12 20.835 12.9 21.6 14 21.6H26C27.1 21.6 28 20.835 28 19.9ZM17 16.5L19.03 18.8035L22 15.65L26 19.9H14L17 16.5ZM8 11.4V23.3C8 24.235 8.9 25 10 25H24V23.3H10V11.4H8Z" fill="#414F60"/>
</g>
<path d="M17.5 0.25C27.041 0.25 34.75 7.53903 34.75 16.5C34.75 25.461 27.041 32.75 17.5 32.75C7.95903 32.75 0.25 25.461 0.25 16.5C0.25 7.53903 7.95903 0.25 17.5 0.25Z" stroke="#414F60" stroke-opacity="0.6" stroke-width="0.5"/>
<defs>
<filter id="filter0_i_2545_1104" x="8" y="8" width="20" height="21" filterUnits="userSpaceOnUse" color-interpolation-filters="sRGB">
<feFlood flood-opacity="0" result="BackgroundImageFix"/>
<feBlend mode="normal" in="SourceGraphic" in2="BackgroundImageFix" result="shape"/>
<feColorMatrix in="SourceAlpha" type="matrix" values="0 0 0 0 0 0 0 0 0 0 0 0 0 0 0 0 0 0 127 0" result="hardAlpha"/>
<feOffset dy="4"/>
<feGaussianBlur stdDeviation="2"/>
<feComposite in2="hardAlpha" operator="arithmetic" k2="-1" k3="1"/>
<feColorMatrix type="matrix" values="0 0 0 0 0 0 0 0 0 0 0 0 0 0 0 0 0 0 0.25 0"/>
<feBlend mode="normal" in2="shape" result="effect1_innerShadow_2545_1104"/>
</filter>
</defs>
</svg>
