<svg width="35" height="33" viewBox="0 0 35 33" fill="none" xmlns="http://www.w3.org/2000/svg">
<path d="M17.5 0.25C27.041 0.25 34.75 7.53903 34.75 16.5C34.75 25.461 27.041 32.75 17.5 32.75C7.95903 32.75 0.25 25.461 0.25 16.5C0.25 7.53903 7.95903 0.25 17.5 0.25Z" stroke="#414F60" stroke-opacity="0.6" stroke-width="0.5"/>
<g clip-path="url(#clip0_2545_1107)" filter="url(#filter0_i_2545_1107)">
<path d="M17.9999 20.2C19.9145 20.2 21.4665 18.7674 21.4665 17C21.4665 15.2327 19.9145 13.8 17.9999 13.8C16.0853 13.8 14.5332 15.2327 14.5332 17C14.5332 18.7674 16.0853 20.2 17.9999 20.2Z" fill="#414F60"/>
<path d="M14.7503 7L12.7678 9H9.33366C8.14199 9 7.16699 9.9 7.16699 11V23C7.16699 24.1 8.14199 25 9.33366 25H26.667C27.8587 25 28.8337 24.1 28.8337 23V11C28.8337 9.9 27.8587 9 26.667 9H23.2328L21.2503 7H14.7503ZM18.0003 22C15.0103 22 12.5837 19.76 12.5837 17C12.5837 14.24 15.0103 12 18.0003 12C20.9903 12 23.417 14.24 23.417 17C23.417 19.76 20.9903 22 18.0003 22Z" fill="#414F60"/>
</g>
<defs>
<filter id="filter0_i_2545_1107" x="5" y="5" width="26" height="28" filterUnits="userSpaceOnUse" color-interpolation-filters="sRGB">
<feFlood flood-opacity="0" result="BackgroundImageFix"/>
<feBlend mode="normal" in="SourceGraphic" in2="BackgroundImageFix" result="shape"/>
<feColorMatrix in="SourceAlpha" type="matrix" values="0 0 0 0 0 0 0 0 0 0 0 0 0 0 0 0 0 0 127 0" result="hardAlpha"/>
<feOffset dy="4"/>
<feGaussianBlur stdDeviation="2"/>
<feComposite in2="hardAlpha" operator="arithmetic" k2="-1" k3="1"/>
<feColorMatrix type="matrix" values="0 0 0 0 0 0 0 0 0 0 0 0 0 0 0 0 0 0 0.25 0"/>
<feBlend mode="normal" in2="shape" result="effect1_innerShadow_2545_1107"/>
</filter>
<clipPath id="clip0_2545_1107">
<rect width="26" height="24" fill="white" transform="translate(5 5)"/>
</clipPath>
</defs>
</svg>
