<svg width="31" height="30" viewBox="0 0 31 30" fill="none" xmlns="http://www.w3.org/2000/svg">
<path d="M15.5 21C15.9392 21 16.3076 20.856 16.6052 20.568C16.9017 20.281 17.05 19.925 17.05 19.5V16.6413C17.05 15.9147 17.9229 15.5447 18.445 16.05C18.7292 16.325 19.0908 16.4625 19.53 16.4625C19.9692 16.4625 20.3308 16.325 20.615 16.05C20.8992 15.775 21.0412 15.425 21.0412 15C21.0412 14.575 20.8992 14.225 20.615 13.95L16.585 10.05C16.43 9.9 16.2621 9.7935 16.0812 9.7305C15.9004 9.6685 15.7067 9.6375 15.5 9.6375C15.2933 9.6375 15.0996 9.6685 14.9187 9.7305C14.7379 9.7935 14.57 9.9 14.415 10.05L10.385 13.95C10.1008 14.225 9.95875 14.575 9.95875 15C9.95875 15.425 10.1008 15.775 10.385 16.05C10.6692 16.325 11.0308 16.4625 11.47 16.4625C11.9092 16.4625 12.2708 16.325 12.555 16.05C13.0771 15.5447 13.95 15.9147 13.95 16.6413V19.5C13.95 19.925 14.0988 20.281 14.3964 20.568C14.693 20.856 15.0608 21 15.5 21ZM15.5 30C13.3558 30 11.3408 29.606 9.455 28.818C7.56917 28.031 5.92875 26.9625 4.53375 25.6125C3.13875 24.2625 2.03463 22.675 1.2214 20.85C0.407133 19.025 0 17.075 0 15C0 12.925 0.407133 10.975 1.2214 9.15C2.03463 7.325 3.13875 5.7375 4.53375 4.3875C5.92875 3.0375 7.56917 1.9685 9.455 1.1805C11.3408 0.3935 13.3558 0 15.5 0C17.6442 0 19.6592 0.3935 21.545 1.1805C23.4308 1.9685 25.0713 3.0375 26.4662 4.3875C27.8612 5.7375 28.9654 7.325 29.7786 9.15C30.5929 10.975 31 12.925 31 15C31 17.075 30.5929 19.025 29.7786 20.85C28.9654 22.675 27.8612 24.2625 26.4662 25.6125C25.0713 26.9625 23.4308 28.031 21.545 28.818C19.6592 29.606 17.6442 30 15.5 30Z" fill="url(#paint0_linear_2545_1103)"/>
<defs>
<linearGradient id="paint0_linear_2545_1103" x1="35.9536" y1="-3.24742" x2="-12.8658" y2="23.2778" gradientUnits="userSpaceOnUse">
<stop offset="0.119" stop-color="#DB461C"/>
<stop offset="0.923865" stop-color="#FFF227"/>
</linearGradient>
</defs>
</svg>
